<svg id="Layer_1" data-name="Layer 1" xmlns="http://www.w3.org/2000/svg" xmlns:xlink="http://www.w3.org/1999/xlink" viewBox="0 0 341.68 196.99"><defs><style>.cls-1{fill:#e9551d;}.cls-2{fill:#ef7c10;}.cls-3{fill:#f6a307;}.cls-4{fill:#b91d1b;}.cls-5{fill:#fff;}.cls-6{fill:#020203;}.cls-7{fill-rule:evenodd;}.cls-8{fill:#e10000;}.cls-9{fill:url(#linear-gradient);}.cls-10,.cls-11{opacity:0.5;isolation:isolate;}.cls-10{fill:url(#linear-gradient-2);}.cls-11{fill:url(#linear-gradient-3);}.cls-12{fill:url(#linear-gradient-4);}.cls-13{fill:url(#linear-gradient-5);}.cls-14{fill:url(#linear-gradient-6);}.cls-15{opacity:0.9;}.cls-16{fill:url(#linear-gradient-7);}</style><linearGradient id="linear-gradient" x1="174.12" y1="82.93" x2="300.11" y2="133.84" gradientTransform="matrix(1, 0, 0, -1, 0, 198)" gradientUnits="userSpaceOnUse"><stop offset="0" stop-color="#fff" stop-opacity="0"/><stop offset="0.44" stop-color="#fff" stop-opacity="0.5"/><stop offset="1" stop-color="#fff" stop-opacity="0"/></linearGradient><linearGradient id="linear-gradient-2" x1="180.73" y1="126.97" x2="218.12" y2="126.97" gradientTransform="matrix(1, 0, 0, -1, 0, 198)" gradientUnits="userSpaceOnUse"><stop offset="0" stop-color="#fff" stop-opacity="0.25"/><stop offset="1"/></linearGradient><linearGradient id="linear-gradient-3" x1="234.89" y1="64.65" x2="295.13" y2="64.65" gradientTransform="matrix(1, 0, 0, -1, 0, 198)" gradientUnits="userSpaceOnUse"><stop offset="0"/><stop offset="1" stop-color="#fff" stop-opacity="0.25"/></linearGradient><linearGradient id="linear-gradient-4" x1="186.31" y1="53.97" x2="186.94" y2="54.23" xlink:href="#linear-gradient"/><linearGradient id="linear-gradient-5" x1="188.04" y1="51.52" x2="188.93" y2="51.88" xlink:href="#linear-gradient"/><linearGradient id="linear-gradient-6" x1="233.97" y1="67.63" x2="234.76" y2="67.95" xlink:href="#linear-gradient"/><linearGradient id="linear-gradient-7" x1="244.23" y1="122.78" x2="281.41" y2="159.95" gradientTransform="matrix(1, 0, 0, -1, 0, 198)" gradientUnits="userSpaceOnUse"><stop offset="0.17" stop-color="#fff" stop-opacity="0"/><stop offset="0.25" stop-color="#fff" stop-opacity="0.03"/><stop offset="0.36" stop-color="#fff" stop-opacity="0.11"/><stop offset="0.5" stop-color="#fff" stop-opacity="0.24"/><stop offset="0.66" stop-color="#fff" stop-opacity="0.42"/><stop offset="0.83" stop-color="#fff" stop-opacity="0.65"/><stop offset="1" stop-color="#fff" stop-opacity="0.9"/></linearGradient></defs><path class="cls-1" d="M132.43,25a67.06,67.06,0,0,1,11.84,37,62.35,62.35,0,0,0-16.46-18.52,72.4,72.4,0,0,1,8.56,36.33A32.55,32.55,0,0,0,122.56,60c4.3,10.75,8.43,23.54,2.07,33.22a93.32,93.32,0,0,0-6-15,81.24,81.24,0,0,1-10.92,46,59.57,59.57,0,0,0-8.2-29.47,126.42,126.42,0,0,1-5.71,38.43A101.78,101.78,0,0,0,80.66,100a132.76,132.76,0,0,1-9.84,28.19,125.3,125.3,0,0,0-9.87-28c-5.64,9.15-4.66,20.73-3.44,31.38A90.38,90.38,0,0,1,45.87,79.8,34.75,34.75,0,0,0,37.8,98c-7.64-9.9-6.49-23.7-5-36.13A61.79,61.79,0,0,0,17,81.74C15.67,65,23.87,49.11,31.84,34.26A60.07,60.07,0,0,1,14.29,50.39,269.29,269.29,0,0,0,24.79,19a23.14,23.14,0,0,1-7.51,10.82,7.78,7.78,0,0,1-.53,2.07C12.16,42,.62,55.48,0,56.66c0,0,7.28-.82,12.33-5.51-7.81,14.92,5,42.72,11.21,49.74-1.18-3.18-.92-7.67,1.84-9.67-1.35,29.05,22.88,46,22.88,46s-3.32-6.56-.52-10.25c1.57,8,35.9,19.14,35.9,35.14,0-16.23,36.92-28,40.76-50.29.62,0,1.57,6.59-.33,9,17.58-10.33,29.18-43.12,27.9-52.6,2.76,3,4.37,9.78,4.37,9.78s10.59-24.5-.33-45.12C151.88,25,147.94,21.47,144.5,19c1.11,5,3.64,9.58,6.13,14.07A26.35,26.35,0,0,0,132.43,25Z" transform="translate(0 0.03)"/><path class="cls-2" d="M78.56,22C40.72,21.05,26.2,9.6,26.2,0,26.2,17.8,18,24,17.28,29.8A23.17,23.17,0,0,0,24.79,19a271.19,271.19,0,0,1-10.5,31.38A60.19,60.19,0,0,0,31.84,34.26C23.87,49.11,15.67,65,17,81.74A61.3,61.3,0,0,1,32.79,61.87c-1.48,12.43-2.59,26.26,5,36.23a34.73,34.73,0,0,1,8.15-18.2,90.44,90.44,0,0,0,11.61,51.84c-1.18-10.65-2.2-22.23,3.44-31.38a124.14,124.14,0,0,1,9.87,28,132.85,132.85,0,0,0,9.84-28.2,101.58,101.58,0,0,1,13.15,33.15,126.41,126.41,0,0,0,5.7-38.43,59.84,59.84,0,0,1,8.2,29.48,81.16,81.16,0,0,0,10.92-46,95.2,95.2,0,0,1,6,15c6.36-9.7,2.23-22.49-2.06-33.21A32.71,32.71,0,0,1,136.4,80a72.4,72.4,0,0,0-8.56-36.33A62.35,62.35,0,0,1,144.3,62.16a67.08,67.08,0,0,0-11.83-37,26.16,26.16,0,0,1,18.19,8.07c-2.49-4.49-5-9.08-6.13-14.07-5.54-3.93-9.93-5.44-12.43-19C132.07,9.6,116.43,22.88,78.56,22Z" transform="translate(0 0.03)"/><path class="cls-3" d="M57.94,28.19c-6.69,5.81-7.93,18.3-6.65,27a21.77,21.77,0,0,1,6.25-10.6c-1.67,5,.17,10.46,2.17,15.38,2.39,5.9,5.08,11.74,9,16.72a35.11,35.11,0,0,1,1.37-20.53c0,2.46,1.32,4.73,2.5,6.89a119.73,119.73,0,0,1,11.8,31.58C89.72,84,88,71.25,91.38,59.87,96.23,64.72,97.44,72,98.2,78.79a49.89,49.89,0,0,0,4.59-28.53A29,29,0,0,1,110.69,63a46.23,46.23,0,0,0-1-23.38c-1.48-4.75-4.07-9.6-8.63-11.74a18.64,18.64,0,0,0-5.54-1.44c-3.28-.46-6.59-.72-9.9-1a64.07,64.07,0,0,0-12.23-.1,21.66,21.66,0,0,0-11.25,4.36" transform="translate(0 0.03)"/><path class="cls-4" d="M58.94,27.08C57.05,44,93.28,54.82,102.4,28.52,105.22,20.39,59.38,22.75,58.94,27.08Z" transform="translate(0 0.03)"/><path class="cls-5" d="M61.74,33.31c0,2.66,37.25,1.77,37.18-.66,0-.52.26-6.13.3-6.75-10.46.56-28.36.29-37.51,3.08v4.33Z" transform="translate(0 0.03)"/><path class="cls-3" d="M80.3,20.33c6.59,6.85,41.41,8.06,50.3-2.53-6.07,5.08-14.14,4.56-16.89,3.54a7.66,7.66,0,0,0,5.64-5.9C104.17,30.75,99.71,4.49,80.5,18.52,64.63,7,54.2,23.34,42.1,17.67l5.15,3.67s-7.58,5-16.89-3.54a21.69,21.69,0,0,0,4.23,4.69C47.57,27,74.13,25.24,80.3,20.33Z" transform="translate(0 0.03)"/><path class="cls-1" d="M80.5,26.39c11.67,6.49,40.42,6.2,50.1-8.56h0c-8.89,10.56-43.71,9.35-50.3,2.5C74.13,25.24,47.57,27,34.59,22.49,46.69,32.56,70.2,32.13,80.5,26.39Z" transform="translate(0 0.03)"/><path class="cls-1" d="M84.46,156.63c-6.75,3.77-15.9,24.2,1.31,40.33-1.31-15.15,14.3-23.81-1.31-40.33" transform="translate(0 0.03)"/><path class="cls-2" d="M84.07,156.63c-3.31,3.77-6.72,24.2,1.74,40.33-.66-15.15,5.9-23.81-1.74-40.33" transform="translate(0 0.03)"/><path class="cls-6" d="M64.53,153.38c1.34-2.65,18.72,2.66,18.72,2.66s15.31-6.1,18.1-5.15,1.87,15.71,0,15.71-18.07-8.27-18.07-8.27-15.64,8.5-17.18,8.27S63.74,155,64.53,153.38Z" transform="translate(0 0.03)"/><g id="Ebene_2" data-name="Ebene 2"><g id="Layer_1-2" data-name="Layer 1"><polygon class="cls-7" points="317.54 57.06 269.24 57.06 245.09 98.89 269.24 140.72 317.54 140.72 341.69 98.89 317.54 57.06"/><path class="cls-8" d="M258.36,29.78c13.54-3.14,33.18,4.47,35.93,21.63.61,3.83.2,7.94-3,10.05s-6.66,4.54-10,6.89c-6.41,4.57-12.7,9.36-18.82,14.44a174,174,0,0,0-17.4,16.06c7.53,8,16.2,14.85,24.78,21.32q7.06,5.34,14.39,10.28c2.66,1.8,5.37,3.51,8.05,5.3,2.2,1.47,2.85,4.35,2.84,7.09-.06,13.3-11.84,21.52-22.06,24a34.24,34.24,0,0,1-8.72,1,16.5,16.5,0,0,1-7.52-1.37c-1.65-.87-2.55-3.4-3.48-5.05-1.34-2.4-2.7-4.79-4.06-7.17-6-10.4-12.49-20.3-19-30.28a4.3,4.3,0,0,0-7.08-.2c-2.06,2.83-4,5.66-5.91,8.55-2.78,4.16-5.49,8.38-8.09,12.69-1.24,2.06-2.46,4.13-3.64,6.22-.83,1.45-1.55,3.79-3.29,3.76-4.39-.09-9-3.76-12.17-6.89a29.88,29.88,0,0,1-8-14,17.18,17.18,0,0,1-.52-7.51c.55-2.5,3.4-3.61,5.15-4.94,17.11-13,23.64-22.65,23.64-22.65s-1.26-1.47-1.57-1.81c-1.68-1.84-3.39-3.62-5.14-5.36A159.58,159.58,0,0,0,191.6,81.09q-3.15-2.53-6.42-4.89a24.6,24.6,0,0,1-3.32-2.31,4.84,4.84,0,0,1-1-3c-.49-5.2,1.52-10.84,4.06-15.07a30.18,30.18,0,0,1,11-10.88c1.57-.86,4-2.25,5.86-1.81,1.43.35,2.47,3.16,3.23,4.47a289,289,0,0,0,17.55,26.16,4.37,4.37,0,0,0,7-.07c3.5-4.89,8.67-12.15,10.51-15,2.79-4.38,5.44-8.88,7.9-13.5,2.22-4.16,4.12-8.49,6.22-12.72C255.15,30.64,256.63,30.18,258.36,29.78Z" transform="translate(0 0.03)"/><path class="cls-9" d="M245.09,98.86c.48-.54,1-1.06,1.48-1.57A185.19,185.19,0,0,1,262.49,82.8c6.11-5.08,12.4-9.87,18.82-14.44q5-3.52,10-6.89c3.18-2.12,3.58-6.22,3-10-2.77-17.17-22.41-24.78-35.95-21.64-1.73.4-3.22.86-4.11,2.66-2.11,4.23-4,8.56-6.22,12.72-2.47,4.62-5.12,9.12-7.91,13.5-1.83,2.88-7,10.15-10.51,15a4.36,4.36,0,0,1-6.09,1,4.85,4.85,0,0,1-.91-.9c-1.89-2.53-4.36-5.92-7-9.79,4.69,10.58,3.11,24.19-5.16,35,0,0-6.53,9.65-23.64,22.65-1.82,1.39-4.67,2.5-5.21,5a17.24,17.24,0,0,0,.52,7.49,29.88,29.88,0,0,0,8,14c3.15,3.14,7.78,6.81,12.17,6.89,1.74,0,2.46-2.31,3.29-3.76,1.19-2.09,2.4-4.17,3.64-6.22q3.9-6.47,8.09-12.69c1.93-2.88,3.84-5.72,5.91-8.55a4.3,4.3,0,0,1,6-.93,4.11,4.11,0,0,1,1.07,1.13l5.27,8.13C233.24,121.22,236.39,108.64,245.09,98.86Z" transform="translate(0 0.03)"/><path class="cls-10" d="M210.37,99s-1.26-1.48-1.57-1.81c-1.67-1.84-3.39-3.62-5.14-5.36q-5.76-5.67-12.06-10.75-3.15-2.55-6.42-4.9a24.6,24.6,0,0,1-3.32-2.31,4.81,4.81,0,0,1-1.05-3c-.49-5.2,1.53-10.84,4.06-15.07A30.18,30.18,0,0,1,195.94,45c1.56-.86,4-2.25,5.85-1.82,1.43.35,2.47,3.17,3.23,4.48,3.33,5.72,7.09,11.48,10.51,16.36h0C220.21,74.58,218.62,88.18,210.37,99Z" transform="translate(0 0.03)"/><path class="cls-11" d="M295.13,142.86c-.06,13.3-11.84,21.51-22,24a33.82,33.82,0,0,1-8.73,1c-2.44,0-5.27-.18-7.51-1.37-1.65-.87-2.56-3.4-3.49-5.05-1.33-2.4-2.69-4.8-4.05-7.18-4.36-7.57-9-14.89-13.7-22.17-2.36-10.93.8-23.5,9.49-33.27,7.53,8,16.18,14.85,24.76,21.33q7.08,5.34,14.4,10.27c2.66,1.81,5.37,3.52,8,5.3C294.49,137.23,295.15,140.09,295.13,142.86Z" transform="translate(0 0.03)"/><path class="cls-12" d="M185.74,142.66c.54.86,1.13,1.69,1.74,2.49Q186.57,144,185.74,142.66Z" transform="translate(0 0.03)"/><path class="cls-13" d="M187.5,145.15a25.29,25.29,0,0,0,2,2.28A20.28,20.28,0,0,1,187.5,145.15Z" transform="translate(0 0.03)"/><path class="cls-14" d="M235.6,132.09h0l-2.44-3.78Z" transform="translate(0 0.03)"/><g class="cls-15"><path class="cls-16" d="M245.32,76.23a9.12,9.12,0,0,0,7.58,3.4c3.53-.19,5.91-2.59,8.55-4.66A202.69,202.69,0,0,1,281.34,61.4l5.23-3.17c.73-.44,2.15-1,2.63-1.74,1.29-2,.41-5.66-.24-7.85-1.54-5.12-5.52-9.28-10.09-11.91a28.12,28.12,0,0,0-9.08-3.28,24,24,0,0,0-6.28-.23,37.88,37.88,0,0,0-3.83.68,3,3,0,0,0-1.86,2c-.34,1-.77,2.17-1,2.75l-1,2.66c-.71,1.87-1.4,3.75-2.15,5.6a142.28,142.28,0,0,1-8.74,18.42C242.9,68.8,242.68,72.92,245.32,76.23Z" transform="translate(0 0.03)"/></g><path class="cls-5" d="M288.59,117l-7.85-14.22h-5.5V117h-6.43V80.69H281c7.56,0,13.39,2.67,13.39,10.78,0,5.56-2.89,8.89-7.28,10.39L295.81,117ZM275.25,97.69h5.11c5,0,7.67-2.11,7.67-6.22s-2.67-5.61-7.67-5.61h-5.11Z" transform="translate(0 0.03)"/><path class="cls-5" d="M305.92,102.8l-8.11-13h6.93l3,5.17c.78,1.5,1.66,3.11,2.5,4.61h.22c.67-1.5,1.44-3.11,2.11-4.61l2.61-5.17h6.61l-8.05,13.78L322.4,117h-6.88l-3.34-5.39c-.89-1.61-1.83-3.28-2.78-4.83h-.22c-.78,1.56-1.61,3.17-2.39,4.83L303.9,117h-6.66Z" transform="translate(0 0.03)"/></g></g></svg>